<mxfile host="app.diagrams.net" modified="2023-09-18T03:37:09.988Z" agent="Mozilla/5.0 (Windows NT 10.0; Win64; x64) AppleWebKit/537.36 (KHTML, like Gecko) Chrome/117.0.0.0 Safari/537.36" version="21.7.5" etag="ciyTUwfHaHZYSQfd6iol" type="github">
  <diagram name="Halaman-1" id="ZpUIX78hKm-2HnL7dShp">
    <mxGraphModel>
      <root>
        <mxCell id="0" />
        <mxCell id="1" parent="0" />
      </root>
    </mxGraphModel>
  </diagram>
</mxfile>
